<svg xmlns="http://www.w3.org/2000/svg" width="778.667" height="472"><defs><clipPath clipPathUnits="userSpaceOnUse" id="a"><path d="M0 354h584V0H0z"/></clipPath></defs><g clip-path="url(#a)" transform="matrix(1.33333 0 0 -1.33333 0 472)"><path d="M202.642 302.791s41.113 15.681 88.23 15.681c47.117 0 78.99-10.599 97.006-19.376-.116-6.986 0-132.113 0-132.113s-78.068-40.303-82.687-41.805c-6.31-2.052-15.705-2.715-24.019.923-11.274 4.935-78.414 42.148-78.414 42.148z" fill="#007dc2"/><path d="M286.252 194.93L178.16 247.939v66.518l108.092-53.007z" fill="#d82726"/><path d="M57.25 41.541c-3.168 0-6.447 1.007-7.16 3.146l.461 18.472 4.62.208c6.892 0 12.086-2.514 12.299-10.826.173-6.756-3.663-11-10.22-11m-7.16 40.816c0 2.563.408 2.114 3.02 2.114 7.337 0 11.848-.49 11.82-8.371-.02-6.38-2.776-10.091-8.446-10.221l-6.394-.116zM61.494 64.64v.135c5.368 1.05 11.324 4.526 11.693 10.978.554 9.717-9.441 11.684-18.155 11.692h-18.57l.867-2.771c5.006-.065 5.976-1.386 5.947-5.603V47.247c0-5.654-1.807-5.814-6.813-5.879v-2.284h21.103c8.806 0 17.612 2.24 18.218 12.764.554 9.597-8.138 11.476-14.29 12.792m88.43 2.884c-7.189 3.032-10.913 5.008-10.913 10.594 0 4.734 4.237 7.335 7.968 7.335 7.342 0 12.53-8.402 12.646-14.06l2.771-.057v16.136l-2.77.06c-.603-1.053-1.026-2.165-2.229-2.165-.6 0-1.852 1.17-3.778 1.76-1.925.657-4.386 1.271-7.275 1.271-7.283 0-13.742-5.613-13.742-14.29 0-8.749 6.882-11.163 13.598-13.513 6.93-2.425 12.324-5.454 11.635-11.925-.578-5.426-4.349-7.909-9.405-7.909-8.005 0-11.493 6.174-14.443 14.261l-2.36.19.11-16.128h2.54c.723.854 1.155 2.24 1.876 2.24.663 0 2.768-1.649 4.875-2.173 2.166-.463 4.694-.988 7.042-.988 9.57 0 16.145 4.937 16.61 14.987.395 8.54-8.15 11.59-14.756 14.374M95.876 63.8l-.085 18.146c0 1.088.084 2.26.52 2.555.437.295 1.765-.035 3.713-.035 2.89 0 5.511-.293 7.258-1.121 3.27-1.537 4.33-4.596 4.33-8.805 0-4.376-1.529-8.314-7.939-10.306-2.207-.688-2.847-.246-7.798-.433m26.711-19.913l-14.38 18.7c5.803 1.676 12.03 6.31 11.577 12.386-.462 6.206-1.622 8.872-6.929 10.883-2.796 1.066-6.367 1.38-10.56 1.38h-20.15v-2.303c2.63-.214 4.54-.025 5.31-.818.77-.793 1.409-2.516 1.409-5.075V47.52c0-3.02-.808-4.634-1.495-5.46-.687-.825-2.428-.523-5.223-.78v-2.197h20.546l.008 2.24c-2.749.237-5.146.136-5.964.856-.817.72-.944 2.114-.944 4.805l.001 13.93 5.398-.116 15.186-21.715h12.536v2.254c-1.446.14-2.603.176-3.528.693-.924.517-1.874.728-2.798 1.857m129.622 3.487c-1.454-3.107-4.956-5.552-8.326-5.552-3.172 0-5.091 2.38-5.091 5.616 0 7.801 8.461 8.264 14.343 8.66-.065-2.972.333-5.817-.926-8.724m12.231-4.363c-.993 0-1.588-1.189-2.712-1.189-1.784 0-1.654 2.445-1.654 3.766v15.005c-.062 2.71-.197 5.354-.79 6.875-1.721 4.956-8.594 6.675-13.354 6.675-7.335 0-12.559-2.975-12.559-7.733 0-2.644 1.323-4.429 4.033-4.429 3.042 0 4.56 1.655 4.56 4.561 0 1.454-1.123 2.512-1.123 2.91 0 1.852 3.503 1.916 4.761 1.916 5.021 0 7.533-2.579 7.533-7.865v-4.629c-5.616-.197-11.303-.925-15.731-3.305-3.768-2.049-6.212-4.298-6.212-8.924 0-5.087 3.7-8.791 8.924-8.791 5.549 0 9.053 2.315 13.151 5.752.859-3.107 1.984-5.752 5.554-5.752 2.379 0 6.28 2.778 6.28 4.431 0 .13-.133.726-.661.726m35.627 2.577v16.659c-.067 6.542-2.382 11.896-9.914 11.896-5.554 0-9.124-3.502-11.37-8.196h-.133v8.196c-3.635-1.123-8.26-1.453-11.964-1.586v-2.775c3.37-.132 5.024 0 5.024-3.9V45.588c0-4.23-3.703-3.897-4.89-3.897v-2.778h16.788v2.778c-1.916 0-4.958-.333-4.958 3.897V56.23c0 5.75 2.314 13.947 9.386 13.947 5.62 0 5.092-7.403 5.092-8.66v-15.93c0-4.23-3.703-3.897-4.959-3.897v-2.778h16.854v2.778c-1.256 0-4.956-.333-4.956 3.897m24.417-3.369c-7.8 0-8.594 9.52-8.594 14.277 0 7.008 1.852 14.343 8.924 14.343 7.468 0 8.594-8.99 8.594-14.343 0-5.95-1.324-14.277-8.924-14.277m15.863-10.967v42.892h-1.919l-3.153-5.557c-1.849 4.36-6.89 5.557-11.72 5.557-9.053 0-15.267-8.921-15.267-17.45 0-8.46 5.025-17.78 14.477-17.78 4.361 0 7.668 2.445 10.643 5.419V31.25c0-4.23-4.694-3.833-6.612-3.9v-2.778h18.51v2.778c-1.259 0-4.959-.33-4.959 3.9m38.341 14.714v28.024c-3.638-1.104-8.264-1.426-11.967-1.556v-2.726c3.373-.13 5.027 0 5.027-3.827V55.435c0-5.644-2.317-13.688-9.387-13.688-5.618 0-5.091 7.267-5.091 8.499v23.742c-3.635-1.104-8.264-1.426-11.963-1.556v-2.726c3.369-.13 5.024 0 5.024-3.827V49.53c.064-6.422 2.378-11.676 9.914-11.676 5.552 0 9.12 3.437 11.37 8.044h.133v-8.044c3.631 1.104 8.26 1.429 11.894 1.556v2.726c-3.305.13-4.955 0-4.955 3.827m15.612 12.977c0 4.696 2.175 12.429 8.259 12.429 6.087 0 8.26-7.734 8.26-12.43zm8.259 15.203c-9.252 0-15.4-8.789-15.4-18.179-.188-8.855 5.96-18.11 15.4-18.11 7.39 0 12.112 3.704 15.403 9.123l-2.301 1.456c-2.171-3.506-6.331-6.61-10.43-6.61-7.081 0-10.931 6.212-10.931 14.343h23.662c0 9.189-6.15 17.977-15.403 17.977m81.683-26.902c-2.182 0-4.166-1.916-4.166-4.165 0-2.247 1.984-4.163 4.166-4.163 2.182 0 4.165 1.916 4.165 4.163 0 2.25-1.983 4.165-4.165 4.165m23.363 10.979l8.43 19.89 7.275-19.89zm27.511-10.448l-15.142 40.185h-3.315L501.14 47.704c-1.564-4.033-3.257-5.553-7.446-5.881v-2.91h15.89v2.91c-2.376-.132-5.629.129-5.629 3.435 0 .463.125 1.123.373 1.85l2.087 8.202h18.018l2.422-6.217c.812-2.116 1.5-4.166 1.5-4.96 0-2.905-4.314-2.245-6.006-2.31v-2.91h20.46v2.91c-4.878-.201-5.755 1.518-7.695 5.949m14.492-.531c-2.18 0-4.163-1.916-4.163-4.165 0-2.247 1.984-4.163 4.163-4.163 2.182 0 4.165 1.916 4.165 4.163 0 2.25-1.983 4.165-4.165 4.165m-342.173-5.529c-3.167 0-6.446 1.007-7.16 3.147l.46 18.473 4.62.206c6.893 0 12.087-2.512 12.3-10.827.174-6.755-3.661-11-10.22-11m-7.16 40.816c0 2.567.407 2.115 3.02 2.115 7.337 0 11.849-.491 11.822-8.372-.022-6.376-2.777-10.09-8.448-10.22l-6.393-.116zm11.404-17.714v.132c5.369 1.05 11.325 4.526 11.693 10.979.555 9.717-9.441 11.684-18.153 11.692h-18.571l.867-2.771c5.007-.066 5.976-1.386 5.946-5.601V47.417c0-5.654-1.805-5.813-6.813-5.88v-2.283h21.104c8.808 0 17.612 2.24 18.218 12.765.552 9.597-8.14 11.478-14.291 12.794m245.97 2.866c-7.188 3.032-10.913 5.01-10.913 10.597 0 4.734 4.235 7.332 7.97 7.332 7.341 0 12.527-8.402 12.643-14.058l2.772-.06v16.14l-2.772.057c-.6-1.05-1.022-2.165-2.227-2.165-.6 0-1.85 1.169-3.779 1.76-1.923.657-4.384 1.27-7.275 1.27-7.28 0-13.74-5.612-13.74-14.29 0-8.745 6.883-11.16 13.597-13.512 6.929-2.425 12.324-5.454 11.636-11.923-.58-5.426-4.35-7.911-9.405-7.911-8.004 0-11.492 6.177-14.443 14.264l-2.36.186.109-16.127H442c.723.857 1.157 2.24 1.877 2.24.663 0 2.768-1.65 4.875-2.173 2.167-.463 4.695-.988 7.042-.988 9.568 0 16.145 4.937 16.61 14.989.394 8.537-8.15 11.587-14.757 14.372" fill="#007dc2"/></g></svg>